<?xml version="1.0" standalone="no"?>
<!DOCTYPE svg PUBLIC "-//W3C//DTD SVG 20010904//EN"
 "http://www.w3.org/TR/2001/REC-SVG-20010904/DTD/svg10.dtd">
<svg version="1.0" xmlns="http://www.w3.org/2000/svg"
 width="512.000000pt" height="512.000000pt" viewBox="0 0 512.000000 512.000000"
 preserveAspectRatio="xMidYMid meet">

<g transform="translate(0.000000,512.000000) scale(0.100000,-0.100000)"
fill="#000000" stroke="none">
<path d="M2345 4770 c-317 -33 -661 -148 -931 -310 -294 -178 -576 -460 -754
-754 -219 -364 -335 -813 -316 -1231 24 -553 239 -1057 618 -1450 187 -195
382 -337 623 -455 320 -157 612 -224 975 -224 363 0 657 67 975 224 242 119
436 261 620 451 328 341 528 750 602 1229 24 157 24 463 0 620 -38 248 -100
447 -207 665 -367 749 -1105 1221 -1940 1240 -96 2 -215 0 -265 -5z m390 -170
c545 -50 1042 -308 1391 -723 641 -763 641 -1875 0 -2634 -481 -569 -1236
-837 -1954 -693 -641 129 -1170 535 -1453 1115 -494 1015 -70 2241 947 2736
330 161 710 232 1069 199z"/>
<path d="M2385 4430 c-150 -16 -395 -70 -395 -88 0 -4 281 -288 625 -632 l625
-625 0 612 0 612 -57 21 c-84 32 -224 67 -332 84 -120 20 -351 27 -466 16z"/>
<path d="M1715 4234 c-205 -105 -420 -270 -560 -432 -81 -92 -199 -262 -241
-343 l-24 -49 892 0 893 0 -435 435 c-239 239 -435 435 -435 435 -1 0 -41 -21
-90 -46z"/>
<path d="M3410 3338 l0 -893 434 434 434 434 -13 31 c-25 58 -107 201 -166
286 -156 228 -416 462 -641 576 l-48 24 0 -892z"/>
<path d="M790 3183 c-33 -89 -68 -228 -86 -343 -21 -127 -23 -419 -5 -535 15
-100 59 -285 71 -305 8 -12 141 116 637 613 l628 627 -612 0 -612 0 -21 -57z"/>
<path d="M3710 2505 l-625 -625 611 0 612 0 15 38 c84 212 129 533 108 780
-15 175 -68 432 -89 432 -4 0 -288 -281 -632 -625z"/>
<path d="M1272 2237 l-432 -432 46 -90 c106 -207 259 -407 423 -552 98 -87
265 -204 352 -249 l49 -24 0 890 c0 489 -1 890 -3 890 -1 0 -197 -195 -435
-433z"/>
<path d="M1880 1423 l0 -612 57 -21 c220 -82 526 -122 767 -100 172 15 426 68
426 88 0 4 -281 288 -625 632 l-625 625 0 -612z"/>
<path d="M2879 1276 l434 -434 97 48 c324 163 625 453 789 759 l32 61 -893 0
-893 0 434 -434z"/>
</g>
</svg>
