<?xml version="1.0" standalone="no"?>
<!DOCTYPE svg PUBLIC "-//W3C//DTD SVG 20010904//EN"
 "http://www.w3.org/TR/2001/REC-SVG-20010904/DTD/svg10.dtd">
<svg version="1.0" xmlns="http://www.w3.org/2000/svg"
 width="681.000000pt" height="681.000000pt" viewBox="0 0 681.000000 681.000000"
 preserveAspectRatio="xMidYMid meet">

<g transform="translate(0.000000,681.000000) scale(0.100000,-0.100000)"
fill="#000000" stroke="none">
<path d="M2260 6190 c-116 -15 -250 -115 -341 -254 -64 -97 -95 -195 -159
-505 -22 -107 -47 -205 -55 -218 -11 -17 -25 -23 -50 -23 -24 0 -39 -7 -54
-26 -27 -35 -26 -56 4 -92 88 -104 175 -514 175 -820 l0 -83 -41 -40 c-34 -34
-40 -44 -34 -67 10 -39 22 -50 67 -63 51 -13 62 -39 93 -222 38 -226 72 -355
175 -666 70 -209 100 -288 169 -439 27 -59 53 -126 57 -147 10 -55 54 -140
139 -271 111 -167 170 -207 223 -151 39 42 28 115 -63 412 -21 66 -41 134 -45
150 -5 17 -31 113 -60 215 -28 102 -65 237 -81 300 -17 63 -58 214 -91 335
-90 324 -108 397 -108 431 0 28 5 34 48 52 26 11 72 25 102 30 182 34 452 214
721 482 159 158 199 219 236 360 24 92 24 289 -1 395 -50 216 -179 439 -355
616 -144 144 -270 223 -443 278 -101 32 -159 40 -228 31z m252 -203 c96 -44
206 -133 307 -248 242 -274 330 -490 302 -743 -32 -284 -177 -472 -501 -651
-58 -32 -143 -79 -190 -106 -80 -45 -152 -69 -247 -83 -77 -11 -90 13 -183
330 -88 301 -109 480 -86 729 32 346 104 575 219 701 83 91 139 116 244 109
43 -3 85 -15 135 -38z m-390 -2559 c-10 -22 -11 -21 -11 12 -1 26 2 31 11 22
8 -8 8 -17 0 -34z"/>
<path d="M4119 4486 c-73 -19 -138 -63 -224 -150 -130 -131 -166 -225 -250
-641 -14 -71 -34 -146 -43 -165 -14 -30 -21 -35 -46 -32 -58 6 -104 -83 -60
-119 77 -64 174 -504 174 -796 0 -100 -2 -115 -20 -133 -11 -11 -24 -20 -28
-20 -17 0 -32 -49 -22 -74 10 -28 47 -56 72 -56 37 0 65 -78 88 -240 29 -211
187 -722 319 -1031 38 -90 73 -177 76 -194 17 -78 107 -242 200 -364 54 -71
64 -79 103 -87 26 -5 36 -1 62 24 43 44 40 85 -25 292 -61 195 -129 431 -194
670 -17 63 -58 216 -92 340 -90 326 -139 520 -139 547 0 30 53 55 161 78 94
20 187 65 326 158 145 97 242 176 381 312 168 163 222 255 253 430 18 104 6
280 -26 389 -52 179 -185 401 -328 548 -150 155 -307 250 -507 305 -94 25
-142 28 -211 9z m285 -191 c196 -97 449 -376 547 -605 53 -123 64 -179 63
-310 -1 -259 -106 -459 -324 -620 -67 -50 -78 -56 -221 -133 -47 -25 -112 -62
-145 -82 -68 -41 -164 -73 -245 -82 -52 -5 -57 -4 -77 22 -40 50 -156 449
-187 639 -44 279 9 719 117 955 30 66 103 166 139 192 72 51 100 59 189 56 71
-2 95 -7 144 -32z m-374 -2542 c0 -8 -7 -21 -15 -29 -13 -14 -15 -11 -15 20 0
27 3 34 15 30 8 -4 15 -13 15 -21z"/>
</g>
</svg>
