<?xml version="1.0" standalone="no"?>
<!DOCTYPE svg PUBLIC "-//W3C//DTD SVG 20010904//EN"
 "http://www.w3.org/TR/2001/REC-SVG-20010904/DTD/svg10.dtd">
<svg version="1.0" xmlns="http://www.w3.org/2000/svg"
 width="809.000000pt" height="500.000000pt" viewBox="0 0 809.000000 500.000000"
 preserveAspectRatio="xMidYMid meet">

<g transform="translate(0.000000,500.000000) scale(0.100000,-0.100000)"
fill="#000000" stroke="none">
<path d="M1970 4421 c-119 -37 -273 -176 -333 -302 -45 -93 -67 -171 -122
-433 -24 -114 -51 -219 -60 -232 -11 -17 -25 -24 -49 -24 -37 0 -61 -21 -71
-61 -5 -20 0 -33 20 -55 37 -39 61 -98 95 -229 47 -183 80 -427 80 -585 0 -87
-7 -108 -41 -125 -59 -31 -45 -105 24 -127 57 -18 72 -51 102 -235 49 -296
211 -811 344 -1096 23 -49 48 -115 55 -148 16 -65 58 -146 146 -278 97 -145
157 -186 210 -143 42 34 31 97 -69 424 -28 92 -80 277 -116 410 -37 134 -109
400 -161 592 -52 192 -98 370 -101 396 -5 44 -3 49 21 66 15 9 72 28 127 41
151 35 279 107 509 283 124 96 336 309 379 384 19 32 46 94 59 139 21 70 25
102 25 222 0 119 -4 154 -25 236 -67 248 -259 530 -471 691 -185 139 -452 227
-577 189z m192 -152 c113 -24 236 -106 368 -246 153 -162 256 -318 307 -467
26 -75 28 -92 28 -236 -1 -141 -3 -162 -28 -235 -38 -114 -90 -198 -182 -291
-93 -94 -145 -130 -350 -244 -203 -113 -211 -117 -281 -135 -86 -22 -150 -23
-170 -3 -28 27 -133 365 -175 563 -21 98 -24 135 -24 335 1 186 5 246 22 345
66 363 182 565 351 611 60 16 70 16 134 3z m-292 -2583 c0 -19 -4 -38 -10 -41
-6 -4 -10 10 -10 34 0 23 5 41 10 41 6 0 10 -15 10 -34z"/>
<path d="M3916 3855 c-9 -13 -21 -56 -28 -95 -12 -70 -12 -70 -48 -75 -54 -8
-184 -45 -194 -56 -15 -13 23 -11 125 7 49 9 92 15 94 12 3 -2 0 -91 -7 -197
-12 -199 1 -540 22 -595 11 -30 47 -43 66 -25 11 12 11 40 2 154 -10 139 -5
583 8 638 6 25 10 27 60 27 40 0 54 4 54 14 0 18 -22 26 -69 26 l-36 0 3 74
c6 103 -18 143 -52 91z"/>
<path d="M5143 3473 c-48 -46 -92 -113 -109 -169 -10 -35 -10 -46 6 -80 10
-21 41 -58 69 -82 79 -66 71 -91 -57 -194 -26 -21 -19 -46 13 -54 36 -9 57 2
121 60 56 51 59 56 59 100 0 44 -3 50 -67 112 -48 46 -68 72 -68 90 0 29 37
104 88 181 29 45 33 56 21 64 -23 15 -34 11 -76 -28z"/>
<path d="M4838 3454 c-16 -8 -44 -44 -68 -87 l-40 -72 0 61 c0 66 -16 98 -45
93 -26 -5 -33 -40 -43 -229 -8 -159 -8 -166 11 -183 47 -41 82 -6 128 127 28
82 106 256 115 256 3 0 13 -6 24 -12 15 -10 22 -10 31 -1 17 17 4 42 -26 53
-35 13 -55 12 -87 -6z"/>
<path d="M3435 3432 c-142 -88 -217 -338 -135 -452 26 -37 96 -70 147 -70 56
0 158 33 216 69 89 57 48 67 -71 16 -80 -33 -154 -46 -184 -31 -50 25 -73 127
-45 205 9 25 21 36 50 46 86 29 167 110 167 167 0 21 -8 33 -32 48 -41 25 -74
25 -113 2z m78 -106 c-25 -35 -92 -85 -115 -86 -30 0 45 105 95 135 36 21 42
22 45 9 2 -9 -9 -35 -25 -58z"/>
<path d="M4285 3432 c-142 -88 -217 -338 -135 -452 26 -37 96 -70 147 -70 56
0 158 33 216 69 89 57 48 67 -71 16 -80 -33 -154 -46 -184 -31 -50 25 -73 127
-45 205 9 25 21 36 50 46 86 29 167 110 167 167 0 21 -8 33 -32 48 -41 25 -74
25 -113 2z m78 -106 c-25 -35 -92 -85 -115 -86 -30 0 45 105 95 135 36 21 42
22 45 9 2 -9 -9 -35 -25 -58z"/>
<path d="M3526 2065 c-9 -13 -21 -56 -28 -95 -12 -70 -12 -70 -48 -75 -54 -8
-184 -45 -194 -56 -15 -13 23 -11 125 7 49 9 92 15 94 12 3 -2 0 -91 -7 -197
-12 -199 1 -540 22 -595 11 -30 47 -43 66 -25 11 12 11 40 2 154 -10 139 -5
583 8 638 6 25 10 27 60 27 40 0 54 4 54 14 0 18 -22 26 -69 26 l-36 0 3 74
c6 103 -18 143 -52 91z"/>
<path d="M2592 2005 c-22 -47 -34 -209 -34 -456 0 -289 4 -326 38 -339 13 -5
30 -7 38 -4 16 6 43 67 76 173 22 69 71 150 96 158 8 3 13 -32 16 -109 5 -131
24 -185 82 -235 37 -34 76 -43 76 -20 0 7 -13 23 -29 35 -38 28 -58 84 -75
210 -14 101 -34 152 -60 152 -35 0 -95 -61 -132 -134 -20 -42 -39 -76 -42 -76
-3 0 -2 142 2 315 7 317 4 355 -28 355 -7 0 -18 -11 -24 -25z"/>
<path d="M5892 2005 c-22 -47 -34 -209 -34 -456 0 -289 4 -326 38 -339 13 -5
30 -7 38 -4 16 6 43 67 76 173 22 69 71 150 96 158 8 3 13 -32 16 -109 5 -131
24 -185 82 -235 37 -34 76 -43 76 -20 0 7 -13 23 -29 35 -38 28 -58 84 -75
210 -14 101 -34 152 -60 152 -35 0 -95 -61 -132 -134 -20 -42 -39 -76 -42 -76
-3 0 -2 142 2 315 7 317 4 355 -28 355 -7 0 -18 -11 -24 -25z"/>
<path d="M4364 1725 l-19 -66 -32 6 c-51 9 -105 -10 -144 -52 -64 -68 -99
-146 -101 -225 -1 -60 24 -91 73 -91 37 0 51 15 130 133 l49 74 0 -159 c0
-352 -38 -474 -166 -534 -38 -18 -44 -24 -34 -36 42 -51 175 36 234 153 43 84
50 160 50 521 1 358 -5 399 -40 276z m-70 -162 c-66 -114 -144 -214 -144 -185
0 24 48 141 69 168 26 32 69 64 89 64 10 0 5 -15 -14 -47z"/>
<path d="M5421 1771 c-30 -56 -53 -354 -53 -701 0 -283 1 -285 23 -303 12 -10
32 -17 43 -15 20 3 21 11 27 178 8 210 26 321 79 485 39 119 86 207 122 229
34 20 43 -7 43 -127 0 -92 -4 -119 -20 -151 -26 -51 -52 -68 -66 -43 -18 31
-56 17 -43 -17 8 -20 55 -46 83 -46 74 0 112 68 119 211 7 149 -26 219 -104
219 -44 0 -97 -62 -164 -193 l-53 -102 6 60 c17 166 20 305 7 320 -17 20 -37
19 -49 -4z"/>
<path d="M3088 1740 c-16 -12 -28 -28 -28 -36 0 -18 27 -18 46 1 23 22 61 29
93 16 92 -39 96 -224 6 -376 l-29 -50 -9 35 c-23 89 12 310 49 310 19 0 18 26
-2 34 -71 27 -117 -28 -134 -161 -17 -135 8 -251 60 -278 62 -32 103 -7 150
89 41 82 50 182 26 276 -26 103 -71 150 -153 157 -39 4 -53 1 -75 -17z"/>
<path d="M3758 1740 c-16 -12 -28 -28 -28 -36 0 -18 27 -18 46 1 23 22 61 29
93 16 92 -39 96 -224 6 -376 l-29 -50 -9 35 c-23 89 12 310 49 310 19 0 18 26
-2 34 -71 27 -117 -28 -134 -161 -17 -135 8 -251 60 -278 62 -32 103 -7 150
89 41 82 50 182 26 276 -26 103 -71 150 -153 157 -39 4 -53 1 -75 -17z"/>
<path d="M5240 1695 c-6 -15 -15 -46 -21 -71 -11 -42 -29 -60 -29 -29 0 24
-60 55 -107 55 -78 0 -129 -68 -178 -237 -31 -106 -35 -191 -11 -228 36 -54
110 -80 158 -54 11 6 38 50 60 97 21 48 47 105 58 127 l19 40 1 -75 c1 -93 23
-209 41 -221 8 -5 23 -8 34 -7 17 3 20 9 17 48 -1 25 -4 164 -5 309 -2 196 -6
266 -15 269 -6 2 -16 -8 -22 -23z m-63 -114 l23 -19 -44 -106 c-43 -104 -121
-241 -152 -267 -14 -11 -18 -10 -30 6 -19 26 -18 68 5 156 45 173 90 249 148
249 15 -1 38 -9 50 -19z"/>
<path d="M4688 1664 c-16 -8 -44 -44 -68 -87 l-40 -72 0 61 c0 66 -16 98 -45
93 -26 -5 -33 -40 -43 -229 -8 -159 -8 -166 11 -183 47 -41 82 -6 128 127 28
82 106 256 115 256 3 0 13 -6 24 -12 15 -10 22 -10 31 -1 17 17 4 42 -26 53
-35 13 -55 12 -87 -6z"/>
<path d="M6582 1637 c-12 -19 -44 -83 -70 -143 -27 -60 -54 -118 -61 -129 -23
-38 -5 114 24 194 26 71 26 75 9 88 -25 18 -37 16 -62 -9 -39 -43 -64 -137
-63 -248 0 -65 3 -77 21 -92 12 -10 35 -18 51 -18 38 0 67 41 109 155 36 98
74 180 89 189 16 10 17 -44 5 -234 -12 -191 -43 -395 -70 -458 -20 -49 -50
-79 -90 -92 -37 -12 -37 -40 0 -40 69 1 151 73 184 162 62 165 72 553 17 659
-14 26 -43 49 -62 49 -4 0 -18 -15 -31 -33z"/>
</g>
</svg>
